<?xml version="1.0" encoding="utf-8"?>
<!-- Generator: Adobe Illustrator 23.1.0, SVG Export Plug-In . SVG Version: 6.00 Build 0)  -->
<svg version="1.1" id="Camada_1" xmlns="http://www.w3.org/2000/svg" xmlns:xlink="http://www.w3.org/1999/xlink" x="0px" y="0px"
	 viewBox="0 0 600 200" style="enable-background:new 0 0 600 200;" xml:space="preserve">
<style type="text/css">
	.st0{fill:#FFFFFF;}
</style>
<path class="st0" d="M86.07,178.69c-0.5-0.78-0.89-1.46-2.15-1.14c-0.56,0.14-2.77,0.89-1.9-1.53c0.11-0.32-0.61-0.22-0.96-0.07
	c-0.61,0.27-1.15,1.09-1.89,0.37c-0.89-0.87,0.29-1.28,0.6-1.73c0.88-1.3,0.82-2.36-0.41-3.3c-1.25-0.95-1.38-1.57,0.44-1.7
	c0.63-0.04,1.26-0.24,1.1-0.92c-0.23-0.96-0.86-0.14-1.32-0.11c-0.45,0.03-1,0.32-1.19-0.34c-0.22-0.78,1.01-0.3,0.96-0.97
	c-1.3-0.77-2.42,0.52-3.91,0.33c1.45-1.52,2.27-2.89-0.61-3.38c-0.43-0.07-0.93-0.51-0.67-1.06c0.34-0.72,0.88-1.33,1.67-1.62
	c1.47-0.53,3.47-0.71,1.47-3.01c-0.81-0.94,0.06-1.73,0.83-2.02c2.08-0.77,3.23-2.54,4.22-4.2c0.86-1.43,2.88-1.79,3.06-3.99
	c3.36,3.49,7.44,4.26,11.91,4.06c3.53-0.16,6.56-1.46,9.12-3.72c4.78-4.2,8.07-9.43,10.67-15.25c5.77-12.91,6.18-26.56,6.14-40.31
	c-0.01-3.35,0.05-6.72-0.42-10.06c1.25-0.39,2.17,0.42,3.07,0.98c6.85,4.24,13.87,8.19,20.77,12.35c0.85,0.51,1.94,0.88,2.12,2.1
	c-4.04,9.78-7.93,19.6-8.88,30.27c-0.83,1.03-0.01,2.45-0.82,3.49c-0.32,3.71,0.68,7.27,1.56,10.78c1.83,7.29,9.62,10.33,16.13,6.46
	c2.55-1.52,4.61-3.53,6.35-6.02c2.82-4.05,4.35-8.6,6.14-13.11c2.24-5.66,2.76-11.56,3.5-17.46c1.59-0.21,2.72,0.83,3.92,1.54
	c9.91,5.86,19.78,11.8,29.69,17.65c0.9,0.53,1.81,1.05,2.25,2.08c-1.03,3.5-3.06,6.47-5.32,9.21c-1.75,2.12-4.61,2.81-7.09,3.74
	c-8.37,3.14-16.44,6.97-24.66,10.45c-3.72,1.58-7.13,4.07-10.96,5.17c-3.99,1.15-7.23,3.64-11.08,4.89
	c-1.03,0.34-1.91,0.77-2.49,1.72c-0.16,0.26-0.41,0.58-0.66,0.63c-5.31,1.03-9.58,4.22-14.1,6.83c-1.4,0.81-1.79-0.31-2.92-0.82
	c0.82-0.16,1.35-0.26,2.04-0.39c-0.27-0.31-0.39-0.54-0.57-0.63c-2.07-1.01-4.09-2.18-6.24-2.96c-5.37-1.94-10.78-0.59-16.05,0.49
	c-5.25,1.08-10.13,3.52-15.37,4.8c-1.72,0.42-3.69,0.09-5.16,1.42C87.36,178.69,86.71,178.69,86.07,178.69z"/>
<path class="st0" d="M538.57,125.92c-1.06,6.57-4.9,11.2-10.24,14.87c-7.48,5.14-15.66,6.52-24.46,4.8c-4.78-0.94-9.12-2.88-12.87-6
	c-4.44-3.68-7.86-8.09-9.01-13.88c-0.31-1.55-0.31-3.18-0.31-4.77c-0.03-8.48,0.13-16.96-0.09-25.43c-0.08-3.26,1.19-4.97,4.03-6.21
	c3.77-1.64,10.78-0.85,12.68,2.71c0.49,0.92,0.7,1.7,0.7,2.61c0.02,8.72,0.22,17.44-0.05,26.15c-0.24,7.97,7.29,13.97,15.14,11.41
	c4.72-1.54,8-5.31,8-10.97c-0.01-8.64,0-17.28,0-25.92c0-4.07,1.11-5.52,5.2-6.42c4.62-1.02,8.85-0.45,12.16,3.36
	c0,10.41,0,20.81,0,31.22C538.68,124.1,539.23,125.23,538.57,125.92z"/>
<path class="st0" d="M538.57,125.92c0.09-0.9-0.61-2.08,0.89-2.47c0,0.8,0,1.6,0,2.4C539.17,125.88,538.87,125.9,538.57,125.92z"/>
<path class="st0" d="M330.99,89.85c-2.05,2.56-3.67,5.27-5.41,7.91c-2.89,4.38-5.28,9.08-8.15,13.48c-1.88,2.88-3.78,6.1-8.14,5.55
	c-2.07-0.26-3.91-0.88-5.04-2.78c-1.71-2.86-3.38-5.74-5.11-8.59c-3.36-5.53-6.32-11.31-10.36-17.21c0,1.44,0,2.27,0,3.1
	c0,15.61-0.08,31.22,0.04,46.82c0.05,5.73-1.44,5.61-5.56,6.74c-2.77,0.76-5.73,0.36-8.5-0.71c-1.66-0.64-2.47-1.66-2.46-3.61
	c0.06-25.61,0.04-51.22,0.04-76.84c0-2.69,1.17-4.31,3.77-5.15c6.83-2.18,13.12-0.27,16.89,6.21c4.12,7.08,8.62,13.91,12.65,21.05
	c1.22,2.16,2.57,4.33,4.06,6.54c1.32-1.32,2.31-2.67,3.18-4.18c4.24-7.28,8.4-14.62,12.98-21.68c1.76-2.71,3.58-5.61,6.7-7.3
	c4.32-2.34,10.21-1.89,13.99,1.14c1.68,1.35,1.82,3.1,1.82,4.92c0.04,9.04,0.02,18.09,0.02,27.13c0,15.21,0,30.41,0,45.62
	c0,4.73-0.63,5.7-5.28,6.76c-2.91,0.67-5.91,0.65-8.72-0.63c-2.15-0.99-3.48-2.46-3.47-5.11c0.08-15.61,0.04-31.21,0.04-46.82
	C330.99,91.44,330.99,90.65,330.99,89.85z"/>
<path class="st0" d="M191.5,25.52c-0.47,1.08-1.99,0.87-2.42,1.8c-0.27,0.58-2.03,1.87,0.42,2.15c0.49,0.05,0.92,0.57,1.34,0.84
	c-0.09,0.85-1,0.67-1.19,1.09c-0.94,2.01-2.56,2.55-4.64,2.71c-1.52,0.12-1.57,1.78-2.23,2.85c0.89,0.51,1.52-0.31,2.15-0.17
	c1.26,0.28,2.39-1.44,3.87-0.04c0.33,0.31,2.5-0.74,2.51-2.62c0.49,1.13,1.9,1.76,1.02,3.35c-0.28,0.51-0.03,1.7,1.46,1.31
	c1.87-0.5,3.75-0.84,5.12-2.36c0.5-0.56,1.13-0.93,1.87-0.97c5.82-0.35,10.07-4.45,15.2-6.46c1.82-0.72,2.96,0.02,4.39,0.35
	c1.38,0.31,3.27,0.04,2.94,2.46c-0.14,1,1.25,0.66,1.46,1.65c0.4,1.89,0.87,3.64-1.51,4.64c1.51,0.78,2.67,2,4.49,0.9
	c0.68-0.41,1.37,0.33,1.03,1.27c-0.36,0.97,0.19,1.51,0.81,2.04c0.47,0.4,3.87,4.98,4.34,5.41c0.87,0.79,0.88,1.61,0.54,2.58
	c-0.2,0.57-0.23,0.95,0.57,1.24c1.29,0.47,1.24,0.58-0.2,1.72c2.52,1.1,3.44,3.53,4.87,5.53c0.36,0.5,0.51,1.04-0.03,1.5
	c-1.03,0.88-0.75,1.86-0.2,2.8c0.71,1.23,0.28,1.74-0.96,2.28c-5.3,2.32-10.59,4.72-15.44,7.92c-1.05,0.69-1.3,0.37-1.76-0.76
	c-5.93-14.6-16.9-22.87-34.36-16.75c-6.33,2.22-11.64,6.23-16.11,11.27c-0.99,1.11-2.16,2.06-3.57,3.38
	c-0.65-2.76-2.25-4.7-3.61-6.8c-4.34-6.72-10.67-10.11-18.37-11.25c-8.81-1.3-16.79,1.09-24.24,5.69c-0.41,0.25-0.81,0.52-1.23,0.75
	c-1.3,0.73-2.3,0.76-2.8-0.98c-0.83-2.87-2.57-5.27-4.26-7.67c-1.19-1.68-2.39-3.34-4.21-4.52c-1.08-0.7-2.15-1.62-2.84-2.86
	c5.61-1.73,11.33-2.3,16.61-4.79c3.49-1.65,6.96-3.53,10.71-4.56c1.62-0.45,3.4-1.24,5.25-0.08c1.18,0.74,2.27,0.24,2.22-1.34
	c-0.05-1.7,0.82-2.07,2.23-1.8c3.46,0.67,6.35,0.15,8.21-3.31c0.87-1.63,3.07-1.38,3.99-0.86c2.58,1.45,4.25-0.29,6-1.25
	c1.43-0.79,2.63-1.35,4.19-0.78c1.67,0.62,3.23,0.36,4.87-0.26c0.68-0.26,2.07-1.65,2.38,0.54c0.01,0.08,0.33,0.21,0.38,0.17
	c1.56-1.37,3.69-0.11,5.32-1.16c0.67-0.43,1.39-0.73,2.22-0.84c1.61-0.22,2.71,0.17,2.91,1.96c0.54-0.18,0.66,0.08,0.57,0.55
	c-0.17,2.01,1.05,2.1,2.46,1.67c1.74-0.53,3.36-1.43,5.22-1.58c0.18,0.08,0.25,0.17,0.2,0.27C191.61,25.46,191.56,25.52,191.5,25.52
	z"/>
<path class="st0" d="M208.63,134.12c-11.95-7.09-23.91-14.18-35.86-21.26c0.14-3.91,0.3-7.82,0.42-11.73
	c0.19-6.25-0.1-12.55-1.97-18.49c-1.48-4.68,0.85-7.45,3.53-10.26c2.18-2.28,4.66-4.29,7.12-6.3c4.54-3.71,9.48-6.32,15.65-6.14
	c6.55,0.2,10.79,3.78,13.96,8.97c1.15,1.88,1.85,4.06,2.54,6.18c0.5,1.54,1.81,3.57-1.42,3.97c-0.86,0.11-0.72,1.6-1.41,1.79
	c-1.44,0.38-2.19,2.38-4.14,1.63c-0.43-0.17-1.24,0.58-1.85,0.94c-0.95,0.57-0.42,1.5-0.27,2.13c0.2,0.78,1,0.32,1.55,0.18
	c0.92-0.24,1.84-0.49,2.76-0.74c0.84-0.42,1.84-0.54,2.46-1.37c3.36-1.01,4.56-0.01,4.83,3.46c0.51,6.53,0.14,13.01-0.55,19.5
	c-0.57,0.57-0.32,1.49-0.86,2.07c-0.72,6.99-2.14,13.85-4.36,20.51C210.2,130.84,209.3,132.45,208.63,134.12z"/>
<path class="st0" d="M473.08,141.71c-1.57,3.61-8.12,4.01-11.75,2.99c-4.57-1.29-5.06-2.05-5.06-6.74
	c-0.01-8.8,0.13-17.61-0.09-26.4c-0.19-7.62-9.3-12.64-16.05-9.23c-4.56,2.31-6.01,6.1-6.03,10.79c-0.02,8.32-0.01,16.64-0.01,24.96
	c0,3.56-1.3,5.64-4.82,6.52c-3.96,1-7.89,1.19-11.23-2.08c-0.91-0.89-1.31-1.71-1.31-2.86c0-15.36,0.03-30.73-0.04-46.09
	c-0.01-2.1,1.28-3.04,2.75-3.8c3.47-1.81,7.08-1.8,10.68-0.35c1.43,0.58,2.27,1.73,2.56,3.25c0.54,0.64,0.35,1.43,0.42,2.16
	c0.05,0.49,0.18,0.91,0.83,0.66c6.33-9.17,20.98-9.53,28.39-4.37c6.23,4.34,9.7,10.05,10.79,17.4c0.5,0.71,0.41,1.53,0.41,2.32
	c0.01,9.51,0.01,19.02,0,28.53C473.52,140.19,473.61,141.01,473.08,141.71z"/>
<path class="st0" d="M104.39,72.14c-2.95,4.24-6.22,8.23-8.98,12.63c-4.55,7.25-7.64,15.1-10.77,23c-3.51,8.86-4.79,17.95-4.4,27.36
	c0.13,3.23,0.87,6.33,2.32,9.23c0.63,1.26,1.41,2.54-1.16,2.01c-0.6-0.12-1.27,0.1-1.9,0.2c-6.4,0.93-10.67-1.95-12.16-8.2
	c-0.46-1.91-1.1-3.71-3.1-4.57c-0.78-0.33-1.12-0.79-0.91-1.66c0.39-1.61-0.21-3.03-1.12-4.27c-1.51-2.05-2.97-4.26-3.89-6.49
	c-1.5-3.62-2.08-7.68-1.44-11.66c0.28-1.77,1.87-2.87,3.44-3.76c0.96-0.55,2.75-0.18,2.48-2.19c-0.01-0.11,0.87-0.54,1-0.43
	c2.52,2.11,3.9-0.94,5.85-1.31c0.96-0.18,1.82-0.98,2.66-1.58c0.91-0.65,2.7-1.17,0.58-2.59c-0.56-0.37-0.1-1.01,0.01-1.54
	c0.49-2.38,0.96-4.56-0.31-7.13c-0.65-1.3-1.27-3.7-0.35-5.59c0.41-0.84-0.15-1.21-0.54-1.62c-1.27-1.35-1.79-2.98-2.05-4.76
	c-0.19-1.3-0.23-2.71-1.6-3.53c-0.44-0.27-0.53-0.78-0.46-1.29c0.12-0.99,0.59-1.97-0.73-2.7c-0.61-0.34-0.05-1.17,0.16-1.76
	c0.19-0.51,0.5-0.93-0.05-1.5c-1.44-1.5-1.29-3.67,0.26-5.17c1.91-1.86,4.12-3.25,6.63-4.15c1.09-0.39,2.03-0.91,2.63-1.93
	c1.5-0.21,2.59,0.76,3.7,1.44c6.81,4.16,13.7,8.2,20.58,12.23C102.17,69.68,103.87,70.3,104.39,72.14z"/>
<path class="st0" d="M114.87,75.45c0.35,4.05,0.71,8.09,1.05,12.14c0.76,8.94,0.13,17.83-1.06,26.7c-0.39,0.46-0.45,1.09-0.81,1.57
	c-0.69,5.65-1.67,11.33-4.13,16.43c-2.03,4.21-4.06,8.55-7.93,11.71c-4.6,3.76-9.36,3.11-12.44-1.9c-2.4-3.9-2.47-8.16-2.34-12.43
	c0.28-9.05,3.31-17.49,6.54-25.78c2.46-6.33,5.73-12.37,9.42-18.09c3.07-4.77,6.38-9.43,10.52-13.93c0.16,0.88,0.26,1.44,0.36,2.01
	C114.42,74.36,114.47,74.99,114.87,75.45z"/>
<path class="st0" d="M240.15,86.97c2.12,4.45,4.02,8.94,5.47,13.69c0.92,3.01,2.3,5.78,2.52,9.06c0.09,1.36,1.64,2.64,1.84,4.29
	c0.26,2.12,0,4.39-1.92,5.31c-3.28,1.57-5.41,4.39-8.16,6.52c-5.93,4.59-12.67,7.67-19.43,10.73c-1.38,0.63-2.76,1.27-4.13,1.93
	c-0.52,0.25-1.09,0.55-1.55,0.09c-0.4-0.4,0.03-0.91,0.22-1.31c7.82-16.76,9.78-34.47,8.43-52.68c-0.15-2.06,1.55-2.62,2.57-2.72
	c2.03-0.19,3.62-1.2,5.29-1.99c3.88-1.84,6.29,0.04,7.79,3.5c0.31,0.72,0.37,1.55,1.02,2.11C240.49,85.98,240.48,86.47,240.15,86.97
	z"/>
<path class="st0" d="M148.79,98.44c-8.61-5.22-17.15-10.54-25.96-15.42c-0.42-4.85-0.97-9.68-2.14-14.42
	c-0.33-1.34,0.01-2.32,1.08-3.16c6.79-5.31,14.19-8.55,23.08-6.84c4.07,0.78,7.58,2.79,10.32,5.69c3.17,3.35,5.57,7.33,6.8,11.88
	c0.4,1.49-0.77,2.42-1.52,3.34c-3.78,4.64-6.91,9.66-9.38,15.1C150.44,95.97,149.76,97.28,148.79,98.44z"/>
<path class="st0" d="M164.62,115.36c-0.69,6.2-1.53,12.45-4.04,18.16c-1.67,3.8-2.94,8.08-6.95,10.49
	c-2.97,1.79-5.05,1.11-5.93-2.28c-1.77-6.77-0.93-13.53,0.75-20.14c1.53-5.98,3.56-11.84,5.74-17.64c0.27-0.72,0.78-1.14,1.22-1.69
	c1.72-0.28,2.71,1.13,4,1.79c2.31,1.2,4.59,2.49,6.49,4.33c-0.15,1.64-0.31,3.28-0.46,4.92
	C164.87,113.89,165.11,114.77,164.62,115.36z"/>
<path class="st0" d="M104.39,72.14c-4.69-3.74-10.17-6.22-15.16-9.48c-4.12-2.69-8.48-4.99-12.73-7.47
	c0.04-0.55,0.07-1.48,0.66-1.33c3.53,0.87,5.62-2.13,8.5-3.01c3.55-1.09,6.99-2.59,10.45-3.97c1.29-0.51,2.5-0.04,3.4,0.58
	c2.53,1.76,5.22,3.46,6.85,6.18c1.7,2.83,3.91,5.36,4.9,8.62c0.58,1.89,0.65,3.54-1.11,4.63C107.86,68.28,106.62,70.74,104.39,72.14
	z"/>
<path class="st0" d="M165.89,108.41c-3.67-1.74-6.97-4.12-10.48-6.12c1.79-6.13,5.71-11.14,8.83-17.33
	C166.07,93.16,166.31,100.76,165.89,108.41z"/>
<path class="st0" d="M473.08,141.71c0.01-11.05,0.02-22.1,0.03-33.16c1.16,0.23,0.9,1.16,0.9,1.91c0.02,9.79,0.02,19.58,0.01,29.37
	C474.01,140.59,474.24,141.51,473.08,141.71z"/>
<path class="st0" d="M433.93,95.52c-0.14,0.37-0.27,0.81-0.72,0.86c-0.58,0.07-0.59-0.42-0.59-0.81c0-0.96,0.04-1.92,0.06-2.88
	C434.37,93.08,432.99,94.81,433.93,95.52z"/>
<path class="st0" d="M139.09,132.2c0.06-1.21-0.77-2.63,0.82-3.49C139.78,129.91,140.52,131.31,139.09,132.2z"/>
<path class="st0" d="M191.5,25.52c-0.03-0.14-0.04-0.29-0.05-0.44c1.16-0.22,1.91-1.35,3.79-1.45
	C194.08,25.16,192.81,25.37,191.5,25.52z"/>
<path class="st0" d="M211.7,83.62c-0.17,1.61-1.36,1.42-2.46,1.37C209.78,84.02,210.64,83.64,211.7,83.62z"/>
<path class="st0" d="M215.12,108.65c-0.04-0.83-0.35-1.76,0.86-2.07C216.01,107.4,216.32,108.34,215.12,108.65z"/>
<path class="st0" d="M164.62,115.36c-0.1-0.83-0.33-1.7,0.81-2.04C165.48,114.13,165.82,115.05,164.62,115.36z"/>
<path class="st0" d="M183.77,24.99c-0.19-0.18-0.38-0.37-0.57-0.55c0.65-0.69,1.42-0.43,2.54-0.31
	C184.88,24.5,184.33,24.75,183.77,24.99z"/>
<path class="st0" d="M114.87,75.45c-0.97-0.16-0.94-0.84-0.81-1.57C115.01,74.05,115,74.72,114.87,75.45z"/>
<path class="st0" d="M240.15,86.97c-0.01-0.49-0.02-0.98-0.03-1.48c0.39,0.05,0.8,0.08,0.87,0.59
	C241.06,86.71,240.62,86.86,240.15,86.97z"/>
<path class="st0" d="M114.06,115.86c-0.15-0.74-0.16-1.4,0.81-1.57C114.99,115.02,114.99,115.67,114.06,115.86z"/>
<path class="st0" d="M218.41,30.36c0.01,0.39-0.13,0.66-0.48,0.68c-0.57,0.03-0.54-0.42-0.51-0.79c0.02-0.27-0.03-0.7,0.35-0.68
	C218.21,29.59,218.31,30.04,218.41,30.36z"/>
<path class="st0" d="M408.63,113.02c0.02-3.75-0.42-7.29-1.86-10.89c-2.59-6.49-7.38-10.65-13.63-12.52
	c-10.21-3.06-20.5-2.78-30.37,1.99c-3.94,1.91-4.87,4.81-2.72,9.34c1.39,2.94,4.62,3.94,7.96,1.99c4.17-2.44,8.62-2.77,13.23-2.56
	c5.81,0.26,9.57,4.08,10,9.88c0.14,1.91-0.24,2.66-2.39,2.61c-7.38-0.15-14.75,0.07-21.87,2.34c-5.88,1.88-10.39,5.28-11.62,11.72
	c-0.58,3-0.44,6.06,0.46,9.03c0.99,3.26,3.05,5.88,5.91,7.49c6.28,3.55,12.93,3.8,19.65,1.19c4-1.55,7.35-4.1,10.57-7.36
	c0.62,4.82,1.52,6.35,4.52,7.34c2.48,0.82,5.09,0.81,7.56,0.03c3.8-1.21,4.57-2.43,4.57-6.42
	C408.62,129.83,408.59,121.43,408.63,113.02z M376.29,134.4c-1.73-0.6-3.09-1.7-3.42-3.67c0,0,0,0,0,0
	c-0.93-0.17-0.99-0.8-0.82-1.55c0-0.45,0-0.91,0-1.36l0,0h0c-0.14-0.73-0.15-1.4,0.82-1.56c0.53-2.47,2.48-3.43,4.58-4.09
	c4.03-1.27,8.22-1.18,12.38-1.28c1-0.03,1.33,0.34,1.46,1.37C392.22,129.52,382.88,136.69,376.29,134.4z"/>
</svg>
